<?xml version="1.0" encoding="UTF-8" standalone="no"?>
<!-- Created with Inkscape (http://www.inkscape.org/) -->

<svg
   width="210mm"
   height="297mm"
   viewBox="0 0 210 297"
   version="1.1"
   id="svg1"
   xml:space="preserve"
   inkscape:version="1.4 (e7c3feb100, 2024-10-09)"
   sodipodi:docname="logo.svg"
   xmlns:inkscape="http://www.inkscape.org/namespaces/inkscape"
   xmlns:sodipodi="http://sodipodi.sourceforge.net/DTD/sodipodi-0.dtd"
   xmlns="http://www.w3.org/2000/svg"
   xmlns:svg="http://www.w3.org/2000/svg"><sodipodi:namedview
     id="namedview1"
     pagecolor="#ffffff"
     bordercolor="#000000"
     borderopacity="0.25"
     inkscape:showpageshadow="2"
     inkscape:pageopacity="0.0"
     inkscape:pagecheckerboard="0"
     inkscape:deskcolor="#d1d1d1"
     inkscape:document-units="mm"
     inkscape:zoom="1.4715122"
     inkscape:cx="187.90194"
     inkscape:cy="485.89471"
     inkscape:window-width="2560"
     inkscape:window-height="1371"
     inkscape:window-x="0"
     inkscape:window-y="32"
     inkscape:window-maximized="1"
     inkscape:current-layer="layer1" /><defs
     id="defs1" /><g
     inkscape:label="Layer 1"
     inkscape:groupmode="layer"
     id="layer1"><path
       id="path2"
       style="fill:#000000"
       d="M 108.14482 5.817216 C 107.19357 5.817216 106.77688 5.9719342 106.18267 6.5468872 C 105.97566 6.7471892 104.72179 8.7310672 103.24796 11.190531 C 101.28734 14.462325 100.62353 15.494844 100.45898 15.527734 C 100.34021 15.551476 99.735954 15.617652 99.115914 15.675012 C 97.988564 15.779303 97.988348 15.779165 97.727368 15.509648 C 97.583838 15.361413 96.112737 13.738186 94.458317 11.902633 C 92.803907 10.067081 91.246576 8.4039374 90.997546 8.2062174 C 90.418226 7.7462544 89.869071 7.5938867 89.010071 7.6553467 C 87.781771 7.7432317 86.970251 8.4375383 86.469141 9.8288574 C 86.311071 10.267749 85.533017 12.439335 84.740047 14.654403 C 83.298297 18.6818 83.297824 18.68154 81.990344 19.076872 C 80.682874 19.472203 80.683022 19.47206 76.720898 16.533875 C 74.541738 14.917874 72.53787 13.491682 72.26794 13.364042 C 71.35097 12.930451 70.079677 13.101422 69.307397 13.762467 C 68.481547 14.469358 68.45864 14.555608 67.62843 20.149674 C 66.87784 25.207221 66.877897 25.207224 65.670927 25.84235 C 64.463947 26.477476 64.463935 26.477484 59.875415 24.308077 C 55.660435 22.315279 55.234062 22.134537 54.637492 22.088057 C 53.799612 22.02278 53.146663 22.234335 52.542013 22.766569 C 51.531413 23.656137 51.502208 23.926244 51.793738 29.695345 C 52.082788 35.415469 52.173447 34.720449 51.016007 35.655188 C 50.482417 36.08611 50.006374 36.451828 49.957674 36.468058 C 49.908994 36.484285 47.642349 35.940726 44.921289 35.259863 C 39.588209 33.925425 39.519238 33.915087 38.619348 34.313151 C 38.009808 34.582778 37.515555 35.055976 37.227185 35.645369 C 36.742045 36.636957 36.740631 36.625746 38.104651 42.077018 C 38.785511 44.798081 39.329046 47.064207 39.312846 47.112887 C 39.296616 47.161567 38.930896 47.637628 38.499976 48.17122 C 37.564996 49.328957 38.275187 49.236004 32.563387 48.94895 C 26.767157 48.657652 26.501237 48.686268 25.611357 49.697225 C 25.079127 50.301874 24.867545 50.954827 24.932845 51.792704 C 24.979325 52.38927 25.160065 52.815648 27.152865 57.030627 C 29.322275 61.619149 29.322548 61.619147 28.687138 62.826656 C 28.051728 64.034166 28.051635 64.034251 22.990845 64.786226 C 17.395355 65.617651 17.311635 65.639698 16.607255 66.46261 C 15.946325 67.234758 15.774953 68.505963 16.208313 69.423153 C 16.335863 69.693087 17.763342 71.697096 19.380212 73.876111 C 22.319982 77.837956 22.319691 77.837867 21.929411 79.12747 C 21.714761 79.836752 21.531751 80.427275 21.523751 80.439535 C 21.515321 80.451799 19.354793 81.232922 16.722493 82.175346 C 13.772693 83.231437 11.808253 83.986174 11.602393 84.143184 C 10.854843 84.713374 10.489048 85.448306 10.482048 86.393176 C 10.476338 87.158746 10.624922 87.617563 11.054622 88.158443 C 11.250082 88.404473 12.91187 89.959119 14.74742 91.613529 C 16.58297 93.267939 18.206195 94.739041 18.354435 94.882581 C 18.623945 95.143561 18.62409 95.143786 18.5198 96.271126 C 18.46244 96.891166 18.395705 97.495427 18.372005 97.614197 C 18.339115 97.778747 17.307109 98.442568 14.035319 100.40317 C 11.575849 101.877 9.5919748 103.13087 9.3916748 103.33788 C 8.8167148 103.9321 8.6620036 104.34878 8.6620036 105.30003 C 8.6620036 106.25128 8.8167148 106.66798 9.3916748 107.26219 C 9.5919748 107.4692 11.575849 108.72306 14.035319 110.19689 C 17.307109 112.1575 18.339105 112.82132 18.372005 112.98587 C 18.395755 113.10464 18.4624 113.7089 18.5198 114.32894 C 18.62409 115.45628 18.623945 115.4565 18.354435 115.71748 C 18.206195 115.86102 16.58297 117.33212 14.74742 118.98654 C 12.91187 120.64095 11.250082 122.1956 11.054622 122.44162 C 10.624922 122.98251 10.476048 123.44133 10.482048 124.20689 C 10.489098 125.15177 10.854843 125.8867 11.602393 126.45688 C 11.808253 126.6139 13.772693 127.36914 16.722493 128.42524 C 19.354793 129.36766 21.515751 130.14875 21.523751 130.16105 C 21.532181 130.17332 21.714761 130.76332 21.929411 131.4726 C 22.319691 132.76221 22.319982 132.76211 19.380212 136.72395 C 17.763342 138.90297 16.335863 140.90697 16.208313 141.17691 C 15.774953 142.0941 15.946325 143.36583 16.607255 144.13797 C 17.311635 144.96089 17.395355 144.98241 22.990845 145.81384 C 28.051635 146.56581 28.051728 146.5659 28.687138 147.77341 C 29.322548 148.98092 29.322275 148.98092 27.152865 153.56944 C 25.160065 157.78442 24.979345 158.21079 24.932845 158.80736 C 24.843175 159.9583 25.352564 160.92766 26.356014 161.51572 C 26.983234 161.88329 27.651047 161.89799 32.563387 161.65111 C 38.275187 161.36406 37.564996 161.27111 38.499976 162.42885 C 38.930896 162.96244 39.296646 163.439 39.312846 163.4877 C 39.329066 163.53638 38.785511 165.8025 38.104651 168.52356 C 36.770211 173.85664 36.759869 173.92561 37.157939 174.8255 C 37.427569 175.43504 37.900757 175.9293 38.490157 176.21767 C 39.481737 176.70281 39.470019 176.70421 44.921289 175.3402 C 47.642349 174.65933 49.908974 174.11581 49.957674 174.13201 C 50.006354 174.14823 50.482417 174.51396 51.016007 174.94488 C 52.173447 175.87962 52.082788 175.18459 51.793738 180.90472 C 51.502208 186.67382 51.531413 186.94393 52.542013 187.8335 C 53.146663 188.36573 53.799612 188.57731 54.637492 188.51201 C 55.234082 188.46553 55.660552 188.28437 59.879032 186.28992 C 64.471222 184.11879 64.471274 184.11904 65.674544 184.75565 C 66.877824 185.39226 66.87781 185.39208 67.62843 190.44987 C 68.45869 196.0442 68.481547 196.13071 69.307397 196.8376 C 70.079547 197.49853 71.35075 197.6699 72.26794 197.23654 C 72.53787 197.109 74.541028 195.68202 76.719348 194.06567 C 80.679932 191.12684 80.680301 191.12688 81.989311 191.52268 C 83.298321 191.91847 83.298297 191.91878 84.740047 195.94618 C 85.533017 198.16125 86.311071 200.33232 86.469141 200.77121 C 86.970251 202.16253 87.781771 202.85682 89.010071 202.94472 C 89.869071 203.00619 90.418226 202.85433 90.997546 202.39436 C 91.246576 202.19664 92.803907 200.53298 94.458317 198.69743 C 96.112737 196.86188 97.583038 195.23945 97.725818 195.09197 C 97.985428 194.82382 97.985826 194.8238 99.304016 194.95244 C 100.50771 195.0699 100.63558 195.10122 100.77628 195.31263 C 100.86102 195.43997 102.05936 197.42384 103.43968 199.72166 C 105.63601 203.37791 106.00817 203.94406 106.42089 204.25678 C 106.68027 204.45331 107.03079 204.66125 107.19966 204.71825 C 107.36852 204.77535 107.83811 204.81222 108.24301 204.80042 C 109.09139 204.77563 109.75136 204.50077 110.20516 203.98393 C 110.35648 203.81158 111.63536 201.74612 113.04736 199.39351 C 115.00223 196.13635 115.66622 195.10575 115.83066 195.07285 C 115.94943 195.04911 116.55369 194.98245 117.17373 194.92505 C 118.30108 194.82076 118.3013 194.8209 118.56227 195.09042 C 118.70581 195.23865 120.17691 196.86188 121.83132 198.69743 C 123.48573 200.53298 125.04306 202.19664 125.29209 202.39436 C 125.87141 202.85432 126.42058 203.00622 127.27957 202.94472 C 128.50788 202.85684 129.31939 202.16253 129.8205 200.77121 C 129.97857 200.33232 130.75663 198.16125 131.54959 195.94618 C 132.99134 191.91878 132.99131 191.91847 134.30033 191.52268 C 135.60935 191.12688 135.60971 191.12684 139.57029 194.06567 C 141.74861 195.68202 143.75177 197.109 144.0217 197.23654 C 144.93889 197.6699 146.21009 197.49853 146.98224 196.8376 C 147.80809 196.13071 147.831 196.04446 148.66121 190.45039 C 149.4118 185.39284 149.41174 185.39283 150.61871 184.75771 C 151.82569 184.12258 151.82571 184.12258 156.41423 186.29199 C 160.62921 188.28479 161.05558 188.46551 161.65215 188.51201 C 162.49002 188.57729 163.14298 188.36573 163.74763 187.8335 C 164.75824 186.94393 164.78743 186.67382 164.4959 180.90472 C 164.20684 175.18459 164.11618 175.87962 165.27363 174.94488 C 165.80722 174.51396 166.28327 174.14821 166.33197 174.13201 C 166.38065 174.11578 168.64728 174.65933 171.36835 175.3402 C 176.81962 176.70421 176.80789 176.70281 177.79948 176.21767 C 178.38887 175.9293 178.86207 175.43504 179.1317 174.8255 C 179.52976 173.92561 179.51943 173.85664 178.18499 168.52356 C 177.50413 165.8025 176.96059 163.5364 176.97679 163.4877 C 176.99302 163.43903 177.35874 162.96244 177.78966 162.42885 C 178.7244 161.27141 178.02939 161.36206 183.74951 161.65111 C 189.51861 161.94264 189.78871 161.91344 190.67828 160.90284 C 191.21051 160.29819 191.4221 159.64524 191.3568 158.80736 C 191.31032 158.21079 191.12957 157.78442 189.13678 153.56944 C 186.96737 148.98092 186.96737 148.9809 187.6025 147.77393 C 188.23762 146.56695 188.23763 146.56701 193.29518 145.81642 C 198.88924 144.98621 198.9755 144.96382 199.68239 144.13797 C 200.34332 143.36583 200.5147 142.0941 200.08133 141.17691 C 199.95379 140.90697 198.52682 138.90382 196.91046 136.7255 C 193.97164 132.76492 193.97167 132.76507 194.36746 131.45606 C 194.76326 130.14704 194.76358 130.14707 198.79097 128.70532 C 201.00604 127.91236 203.17711 127.13378 203.616 126.97571 C 205.00732 126.4746 205.70161 125.66309 205.78951 124.43478 C 205.85097 123.57578 205.69911 123.02663 205.23915 122.44731 C 205.04143 122.19828 203.37777 120.64095 201.54222 118.98654 C 199.70667 117.33212 198.08345 115.86102 197.93521 115.71748 C 197.6657 115.4565 197.66555 115.45628 197.76984 114.32894 C 197.82719 113.7089 197.89394 113.10464 197.91764 112.98587 C 197.95054 112.82132 198.98253 112.1575 202.25432 110.19689 C 204.71379 108.72306 206.69767 107.4692 206.89797 107.26219 C 207.47292 106.66798 207.62764 106.25128 207.62764 105.30003 C 207.62764 104.34878 207.47292 103.9321 206.89797 103.33788 C 206.69767 103.13087 204.71379 101.877 202.25432 100.40317 C 198.98253 98.442568 197.95054 97.778747 197.91764 97.614197 C 197.8939 97.495427 197.82724 96.891166 197.76984 96.271126 C 197.66555 95.143786 197.6657 95.143561 197.93521 94.882581 C 198.08345 94.739041 199.70667 93.267939 201.54222 91.613529 C 203.37777 89.959119 205.04143 88.401779 205.23915 88.152759 C 205.69911 87.573429 205.85101 87.024283 205.78951 86.165283 C 205.70163 84.936973 205.00732 84.12546 203.616 83.624353 C 203.17711 83.466273 201.00604 82.688221 198.79097 81.89526 C 194.76358 80.453507 194.76326 80.453541 194.36746 79.144523 C 193.97167 77.835504 193.97164 77.835141 196.91046 73.874561 C 198.52682 71.696241 199.95379 69.693087 200.08133 69.423153 C 200.5147 68.505963 200.34332 67.234758 199.68239 66.46261 C 198.9755 65.636766 198.88924 65.613857 193.29518 64.783643 C 188.23763 64.033054 188.23762 64.033113 187.6025 62.826139 C 186.96737 61.619165 186.96737 61.619149 189.13678 57.030627 C 191.12957 52.815648 191.3103 52.38927 191.3568 51.792704 C 191.42208 50.954827 191.21051 50.301874 190.67828 49.697225 C 189.78871 48.686621 189.51861 48.657419 183.74951 48.94895 C 178.02939 49.238005 178.7244 49.328663 177.78966 48.17122 C 177.35874 47.637628 176.99299 47.161567 176.97679 47.112887 C 176.96057 47.064208 177.50413 44.798081 178.18499 42.077018 C 179.549 36.625746 179.5476 36.636957 179.06246 35.645369 C 178.7741 35.055976 178.27982 34.582778 177.67029 34.313151 C 176.7704 33.915087 176.70143 33.925425 171.36835 35.259863 C 168.64728 35.940726 166.38067 36.484288 166.33197 36.468058 C 166.28329 36.451832 165.80722 36.08611 165.27363 35.655188 C 164.11618 34.720449 164.20684 35.415469 164.4959 29.695345 C 164.78743 23.926244 164.75824 23.656137 163.74763 22.766569 C 163.14298 22.234335 162.49002 22.022777 161.65215 22.088057 C 161.05558 22.134534 160.62921 22.315279 156.41423 24.308077 C 151.82571 26.477484 151.82569 26.477476 150.61871 25.84235 C 149.41174 25.207224 149.4118 25.207221 148.66121 20.149674 C 147.831 14.555608 147.80809 14.469358 146.98224 13.762467 C 146.21009 13.101536 144.93889 12.930161 144.0217 13.363525 C 143.75177 13.491066 141.74861 14.918036 139.57029 16.534391 C 135.60971 19.473218 135.60935 19.473185 134.30033 19.077389 C 132.99131 18.681593 132.99134 18.6818 131.54959 14.654403 C 130.75663 12.439335 129.97857 10.267749 129.8205 9.8288574 C 129.31939 8.4375383 128.50788 7.7432267 127.27957 7.6553467 C 126.42058 7.5938857 125.87141 7.7462534 125.29209 8.2062174 C 125.04306 8.4039374 123.48573 10.067081 121.83132 11.902633 C 120.17691 13.738186 118.70581 15.361413 118.56227 15.509648 C 118.3013 15.779165 118.30108 15.779303 117.17373 15.675012 C 116.55369 15.617653 115.94943 15.551474 115.83066 15.527734 C 115.66622 15.494865 115.00223 14.46422 113.04736 11.207068 C 111.63536 8.8544527 110.35648 6.7884806 110.20516 6.6161336 C 109.71342 6.0560756 109.09724 5.817216 108.14482 5.817216 z M 108.14482 23.734469 C 110.21735 23.734469 112.29388 25.053968 113.23547 26.96993 C 114.83298 30.220564 113.03568 34.040748 109.47394 34.965308 C 108.74739 35.153902 107.48515 35.150901 106.77074 34.959106 C 102.4584 33.80138 101.02499 28.573759 104.16057 25.439791 C 105.21244 24.388451 106.74096 23.734469 108.14482 23.734469 z M 94.612313 33.54679 C 94.683633 33.54679 97.017566 35.813193 99.799076 38.583691 C 104.00144 42.769423 104.95585 43.672666 105.44524 43.924967 C 106.37423 44.403905 107.09543 44.578158 108.14482 44.578158 C 109.19422 44.578158 109.91541 44.403905 110.8444 43.924967 C 111.33386 43.672626 112.28989 42.767717 116.50555 38.568705 C 121.57804 33.51624 121.57821 33.51615 122.68967 33.735925 C 129.30316 35.043651 136.41392 37.594871 142.40629 40.809912 C 149.1058 44.404349 154.81777 48.684859 160.17369 54.124345 C 163.56733 57.570931 165.99281 60.522648 168.6419 64.430693 C 169.70918 66.005182 171.58253 69.046401 172.03343 69.9363 C 172.24358 70.351072 172.24357 70.351298 169.13851 76.44598 C 167.43073 79.798055 165.94942 82.810672 165.84672 83.140662 C 165.41948 84.513387 165.54033 85.921385 166.20588 87.322835 C 166.46762 87.873985 166.73691 88.234132 167.31123 88.802332 C 168.07041 89.553402 168.07003 89.553273 174.30306 92.724573 C 177.73122 94.468793 180.54619 95.905543 180.55849 95.917143 C 180.63821 95.992153 180.99019 100.15964 181.08559 102.15914 C 181.19337 104.41854 181.16219 107.72281 181.01117 110.03618 C 180.9487 110.99322 180.94864 110.99323 177.0786 110.99323 C 173.20857 110.99323 173.20855 110.99322 172.93363 111.26814 C 172.6587 111.54306 172.65834 111.54324 172.60704 114.67931 C 172.55253 118.01127 172.47384 118.67715 171.94093 120.29653 C 170.96624 123.25838 168.80604 125.2098 165.87773 125.77424 C 164.53542 126.03297 162.6742 125.90626 161.31057 125.46314 C 160.51104 125.20332 158.99653 124.38298 158.32832 123.84774 C 156.79436 122.61905 156.02765 121.28594 155.40653 118.76794 C 154.49183 115.05985 153.19212 112.07301 151.12049 108.91893 C 149.56233 106.54661 147.26809 103.90783 145.70894 102.69399 C 145.33525 102.40307 145.3356 102.40333 146.98534 101.31061 C 147.8927 100.70962 149.12067 99.826331 149.71438 99.347941 C 157.50269 93.072351 160.59217 84.723319 158.35364 76.000012 C 156.90203 70.343256 153.18243 65.06825 147.99717 61.313053 C 144.3789 58.69268 140.36495 57.036726 135.72712 56.251347 C 134.75279 56.086354 132.50117 56.075489 94.525496 56.049809 C 72.431392 56.034867 54.354305 55.987872 54.354305 55.945422 C 54.354305 55.813961 58.855068 51.405524 60.047498 50.369019 C 68.608028 42.927848 78.443253 37.662208 89.167167 34.778239 C 90.708687 34.36368 94.320833 33.54679 94.612313 33.54679 z M 113.7667 67.145772 C 120.77669 67.122332 121.45442 67.208598 123.77229 68.414945 C 126.28348 69.721907 127.42932 70.991654 130.42408 75.787105 C 133.33167 80.44297 133.48472 80.717847 133.77116 81.81051 C 134.1302 83.180134 134.00416 83.939217 133.1991 85.260429 C 132.84883 85.835274 131.84001 87.635918 130.95686 89.261735 C 128.82704 93.182569 128.01226 94.373465 126.44706 95.854097 C 123.52248 98.620668 121.67834 99.029129 111.20872 99.229085 C 108.68698 99.277245 106.2313 99.246609 105.75168 99.161389 C 105.27206 99.076179 104.5436 98.869302 104.13318 98.701469 C 102.7317 98.128345 102.14279 98.094242 97.082446 98.291158 C 90.451138 98.549212 90.483167 98.557909 85.586507 95.150264 C 81.314066 92.177022 80.51431 91.426506 80.108805 90.012594 C 79.957908 89.486446 79.964177 89.480732 80.793518 89.382141 C 81.254054 89.327391 85.150617 89.23555 89.452421 89.178019 C 93.754223 89.120489 99.175273 89.023874 101.49923 88.963562 C 107.60695 88.805058 107.55986 88.803575 108.08694 89.197656 C 108.64969 89.618415 109.10389 90.7513 109.69201 93.201029 C 110.43481 96.295022 110.66931 96.540372 112.77761 96.433907 C 113.84374 96.380067 114.17288 96.295015 114.37286 96.021529 C 114.75156 95.50362 114.67408 94.224222 114.15479 92.419165 C 113.89874 91.529136 113.53843 90.04411 113.3538 89.119108 C 112.81582 86.423668 112.15939 85.675938 110.63407 86.021106 C 108.71779 86.454742 104.89353 86.994213 103.75956 86.990556 C 102.65155 86.986956 102.47017 86.936085 102.12142 86.530636 C 101.90574 86.279896 101.58173 85.530207 101.40156 84.864587 C 101.02605 83.477361 101.1656 82.077843 101.82789 80.580611 L 102.19841 79.742936 L 103.24228 79.750688 C 103.81647 79.754788 106.02587 79.908237 108.15205 80.091752 C 110.27823 80.275265 112.06861 80.372796 112.13062 80.308793 C 112.38242 80.048919 112.84388 78.250355 113.29076 75.787105 C 113.55089 74.353172 113.87625 72.907341 114.01423 72.573865 C 114.40394 71.631962 114.3283 71.06024 113.73931 70.495955 C 112.84904 69.64302 110.58568 69.624464 110.03463 70.465466 C 109.88502 70.693796 109.5183 71.964207 109.21969 73.28855 C 108.92108 74.612895 108.48477 76.116534 108.24972 76.629948 C 107.88292 77.431151 107.73731 77.576956 107.22291 77.658826 C 106.89329 77.711286 103.95341 77.840708 100.68998 77.946147 C 97.426538 78.051586 92.653034 78.207833 90.08184 78.293412 C 87.510648 78.378992 85.244789 78.446197 85.047005 78.443274 C 84.849221 78.440374 83.705929 78.500783 82.506075 78.577116 L 80.324296 78.715609 L 80.021989 78.254138 C 79.749619 77.838449 79.746503 77.741086 79.988399 77.273319 C 80.506997 76.270463 81.970453 74.855961 84.306999 73.099414 C 85.604239 72.124186 87.091062 71.000562 87.61119 70.602409 C 89.540646 69.12542 91.291613 68.800518 97.453483 68.776681 C 101.64418 68.760461 102.02617 68.71219 103.78178 67.976729 C 105.41033 67.294487 106.9189 67.168677 113.7667 67.145772 z M 36.191073 76.174679 C 36.497929 76.187897 36.808745 76.228172 37.12745 76.295085 C 39.16469 76.722808 40.739958 78.169407 41.455868 80.270036 C 41.737308 81.095723 41.714582 82.652179 41.407292 83.590247 C 40.854782 85.276914 39.50885 86.652817 37.83645 87.241187 C 37.02578 87.526387 35.39771 87.597806 34.62476 87.381746 C 30.30545 86.174366 28.873344 80.983948 32.000114 77.868115 C 32.505574 77.364429 32.922527 77.056755 33.446537 76.799963 C 34.387217 76.338981 35.270505 76.135022 36.191073 76.174679 z M 179.91873 76.191732 C 182.11524 76.000062 184.4081 77.342904 185.39385 79.398254 C 186.96341 82.670888 185.17246 86.459576 181.61992 87.381746 C 179.54685 87.919876 177.11361 87.059978 175.80167 85.326058 C 173.05201 81.69196 175.3514 76.590281 179.91873 76.191732 z M 54.550159 78.797257 C 60.734569 78.797257 60.734794 78.797655 60.734794 102.50279 C 60.734794 126.20792 60.734728 126.2078 49.450728 126.2078 C 38.166718 126.2078 38.166548 126.2079 37.964608 125.52981 C 37.265688 123.18297 36.403495 119.21838 35.955945 116.29368 C 35.286525 111.91902 35.010191 106.91288 35.196301 102.52708 C 35.291931 100.27357 35.637452 96.004743 35.731152 95.917143 C 35.743462 95.905623 38.558424 94.4692 41.986584 92.72509 C 48.219614 89.55398 48.219226 89.554258 48.978406 88.802848 C 49.552496 88.234628 49.822125 87.873765 50.083765 87.322835 C 50.734385 85.952815 50.866518 84.548331 50.469788 83.218176 C 50.381818 82.923206 49.872167 81.807969 49.337557 80.739775 C 48.365547 78.797601 48.365739 78.797257 54.550159 78.797257 z M 102.05889 112.87941 C 107.71507 112.86191 111.56795 112.88948 112.27687 112.95228 C 117.86927 113.44811 121.1984 116.85898 123.34751 124.29371 C 123.85842 126.06117 124.17664 127.41264 124.97583 131.2137 C 126.19523 137.01337 127.00126 139.94066 127.97513 142.10347 C 129.59279 145.69607 131.71924 147.72334 134.79487 148.60643 C 135.58013 148.83188 135.57977 148.83193 151.11326 148.85913 C 159.65668 148.87403 166.64719 148.91078 166.64719 148.94078 C 166.64719 149.116 164.08606 152.26336 162.4676 154.07742 C 161.28059 155.40794 161.20569 155.47265 160.91524 155.41945 C 159.21296 155.10756 147.42197 153.30024 147.09851 153.30124 C 145.36033 153.30818 143.47585 154.31653 142.49104 155.76672 C 141.76861 156.83054 141.68412 157.19164 140.68805 163.48666 C 140.17797 166.71033 139.69298 169.76768 139.61008 170.28056 C 139.51099 170.89372 139.40448 171.25364 139.29899 171.33114 C 139.02451 171.53277 136.25083 172.72977 134.45122 173.42352 C 127.73608 176.01223 120.73171 177.57891 113.39618 178.13228 C 111.97712 178.23932 106.56152 178.33279 105.34757 178.27129 C 96.698211 177.83334 89.343526 176.31677 81.838416 173.42352 C 80.038816 172.72977 77.265129 171.53277 76.990649 171.33114 C 76.885169 171.25365 76.778657 170.89372 76.679557 170.28056 C 76.596667 169.76768 76.111667 166.71033 75.601587 163.48666 C 74.605517 157.19164 74.521016 156.83054 73.798596 155.76672 C 72.813386 154.31594 70.929365 153.30824 69.189575 153.30124 C 68.866645 153.29996 57.175998 155.09282 55.374398 155.41997 C 55.084118 155.47268 55.008368 155.40713 53.822038 154.07742 C 52.193168 152.25168 49.642448 149.11586 49.642448 148.93871 C 49.642448 148.90761 63.108606 148.88239 79.567236 148.88239 C 109.49202 148.88239 109.49214 148.88227 109.75092 148.62349 C 110.00951 148.36471 110.00976 148.36446 110.00776 137.55594 C 110.00564 127.04909 110.00032 126.7409 109.81707 126.50236 C 109.62857 126.25698 109.62841 126.2569 101.30389 126.2078 C 92.97937 126.15872 92.979338 126.15892 92.979338 119.53327 C 92.979338 112.90763 92.979273 112.90741 102.05889 112.87941 z M 152.62324 161.01188 C 153.20817 161.00208 153.79697 161.06036 154.22986 161.18964 C 157.21491 162.08111 158.95358 165.03114 158.25081 168.01248 C 157.78378 169.99379 156.05408 171.72348 154.07277 172.19052 L 154.07277 172.19001 C 153.28898 172.3752 152.04389 172.37305 151.33443 172.18587 C 149.4053 171.67692 147.84314 170.13904 147.24941 168.16441 C 146.99353 167.31345 147.01951 165.81929 147.30522 164.97959 C 147.92474 163.15876 149.21148 161.87145 151.03988 161.24287 C 151.45738 161.09937 152.03831 161.02167 152.62324 161.01188 z M 63.630225 161.01911 C 65.218125 161.02719 66.457889 161.55635 67.606209 162.71565 C 69.037069 164.16021 69.583868 166.31946 69.008708 168.25691 C 68.445468 170.15425 66.83454 171.70132 64.91025 172.19259 C 64.1928 172.37588 62.942296 172.37288 62.171916 172.18639 C 60.229146 171.71609 58.500235 169.97037 58.038835 168.013 C 57.587695 166.09911 58.104206 164.21075 59.472856 162.76991 C 60.617926 161.56445 61.933385 161.01011 63.630225 161.01911 z " /></g></svg>
